<?xml version="1.0" encoding="iso-8859-1"?>
<!-- Uploaded to: SVG Repo, www.svgrepo.com, Generator: SVG Repo Mixer Tools -->
<!DOCTYPE svg PUBLIC "-//W3C//DTD SVG 1.1//EN" "http://www.w3.org/Graphics/SVG/1.1/DTD/svg11.dtd">
<svg fill="#000000" height="800px" width="800px" version="1.1" id="Capa_1" xmlns="http://www.w3.org/2000/svg" xmlns:xlink="http://www.w3.org/1999/xlink" 
	 viewBox="0 0 330 330" xml:space="preserve">
<g>
	<path d="M165,0C74.019,0,0,74.019,0,165s74.019,165,165,165s165-74.019,165-165S255.981,0,165,0z M165,300
		c-74.439,0-135-60.561-135-135S90.561,30,165,30s135,60.561,135,135S239.439,300,165,300z"/>
	<path d="M247.157,128.196l-47.476-6.9l-21.23-43.019c-2.527-5.12-7.741-8.362-13.451-8.362c-5.71,0-10.924,3.242-13.451,8.362
		l-21.231,43.019l-47.475,6.9c-5.65,0.821-10.344,4.779-12.109,10.209c-1.764,5.43-0.293,11.391,3.796,15.376l34.353,33.486
		l-8.109,47.282c-0.965,5.628,1.348,11.315,5.967,14.671c4.62,3.357,10.744,3.798,15.797,1.142L165,228.039l42.462,22.323
		c2.195,1.154,4.592,1.723,6.979,1.723c0.017,0,0.033,0,0.05,0c8.271-0.015,14.972-6.725,14.972-15c0-1.152-0.13-2.274-0.375-3.352
		l-7.97-46.466l34.352-33.486c4.089-3.985,5.561-9.946,3.796-15.376C257.502,132.975,252.808,129.017,247.157,128.196z
		 M194.53,171.289c-3.536,3.446-5.149,8.411-4.314,13.277l4.305,25.099l-22.54-11.85c-2.186-1.149-4.583-1.723-6.98-1.723
		s-4.795,0.574-6.98,1.723l-22.54,11.85l4.305-25.099c0.835-4.866-0.779-9.831-4.314-13.277l-18.236-17.776l25.203-3.663
		c4.886-0.71,9.109-3.779,11.294-8.206L165,118.809l11.27,22.835c2.185,4.427,6.408,7.496,11.294,8.206l25.203,3.663L194.53,171.289
		z"/>
</g>
</svg>