<svg width="683" height="683" viewBox="0 0 683 683" fill="none" xmlns="http://www.w3.org/2000/svg">
<g clip-path="url(#clip0_352_5386)">
<mask id="mask0_352_5386" style="mask-type:luminance" maskUnits="userSpaceOnUse" x="0" y="0" width="683" height="683">
<path d="M0 0.000366211H682.667V682.667H0V0.000366211Z" fill="white"/>
</mask>
<g mask="url(#mask0_352_5386)">
<path d="M505.673 329.412C522.405 312.681 522.405 285.55 505.673 268.818C488.942 252.088 461.811 252.088 445.081 268.818C426.583 287.328 402.997 310.902 384.487 329.412C367.757 346.142 367.757 373.273 384.487 390.004C401.23 406.736 428.35 406.736 445.081 390.004C463.59 371.496 487.175 347.92 505.673 329.412Z" stroke="#3B3A3A" stroke-width="40" stroke-miterlimit="10" stroke-linecap="round" stroke-linejoin="round"/>
<path d="M551.121 405.151C567.852 388.42 567.852 361.29 551.121 344.558C534.391 327.827 507.26 327.827 490.529 344.558C476.283 358.804 459.327 375.76 445.081 390.006C428.351 406.736 428.351 433.856 445.081 450.598C461.812 467.328 488.943 467.328 505.673 450.598C519.92 436.342 536.875 419.396 551.121 405.151Z" stroke="#3B3A3A" stroke-width="40" stroke-miterlimit="10" stroke-linecap="round" stroke-linejoin="round"/>
<path d="M596.556 480.888C604.6 472.855 609.11 461.951 609.11 450.598C609.11 439.232 604.6 428.328 596.556 420.295C588.524 412.262 577.631 407.752 566.266 407.752C554.902 407.752 544.008 412.262 535.974 420.295C526.216 430.043 515.419 440.839 505.672 450.598C497.639 458.631 493.131 469.524 493.131 480.888C493.131 492.252 497.639 503.146 505.672 511.179C513.706 519.223 524.61 523.732 535.974 523.732C547.328 523.732 558.232 519.223 566.266 511.179C576.014 501.432 586.81 490.635 596.556 480.888Z" stroke="#3B3A3A" stroke-width="40" stroke-miterlimit="10" stroke-linecap="round" stroke-linejoin="round"/>
<path d="M445.08 268.819C445.08 268.819 510.953 202.956 551.12 162.79C559.155 154.746 563.664 143.852 563.664 132.488C563.664 121.124 559.155 110.231 551.12 102.198C543.087 94.163 532.183 89.6444 520.819 89.6444C509.455 89.6444 498.56 94.163 490.528 102.198L263.313 329.412C263.313 329.412 253.748 287.992 243.4 243.134C238.26 220.844 221.421 203.096 199.421 196.787C177.432 190.478 153.749 196.604 137.575 212.79C137.564 212.79 137.564 212.8 137.564 212.8L137.821 469.867L73.5547 534.134L202.088 662.667H388.172C405.215 662.667 421.559 655.887 433.608 643.836C480.095 597.362 596.556 480.888 596.556 480.888" stroke="#3B3A3A" stroke-width="40" stroke-miterlimit="10" stroke-linecap="round" stroke-linejoin="round"/>
<path d="M263.312 329.412C263.312 329.412 269.418 335.517 278.458 344.557C320.285 386.384 320.285 454.207 278.458 496.033" stroke="#3B3A3A" stroke-width="40" stroke-miterlimit="10" stroke-linecap="round" stroke-linejoin="round"/>
<path d="M266.355 105.688V19.9991" stroke="#3B3A3A" stroke-width="40" stroke-miterlimit="10" stroke-linecap="round" stroke-linejoin="round"/>
<path d="M180.665 105.688L159.244 84.2671" stroke="#3B3A3A" stroke-width="40" stroke-miterlimit="10" stroke-linecap="round" stroke-linejoin="round"/>
<path d="M352.043 105.688L373.464 84.2671" stroke="#3B3A3A" stroke-width="40" stroke-miterlimit="10" stroke-linecap="round" stroke-linejoin="round"/>
</g>
</g>
<defs>
<clipPath id="clip0_352_5386">
<rect width="682.667" height="682.667" fill="white"/>
</clipPath>
</defs>
</svg>
